<svg width="47" height="42" viewBox="0 0 47 42" fill="none" xmlns="http://www.w3.org/2000/svg">
  <path opacity="0.4" d="M30.0635 31.3211L35.25 29.375L37.1961 24.1885C37.3521 23.7754 37.7469 23.5 38.1875 23.5C38.6281 23.5 39.0229 23.7754 39.1789 24.1885L41.125 29.375L46.3115 31.3211C46.7246 31.4771 47 31.8719 47 32.3125C47 32.7531 46.7246 33.1478 46.3115 33.3039L41.125 35.25L39.1789 40.4365C39.0229 40.8496 38.6281 41.125 38.1875 41.125C37.7469 41.125 37.3521 40.8496 37.1961 40.4365L35.25 35.25L30.0635 33.3039C29.6504 33.1478 29.375 32.7531 29.375 32.3125C29.375 31.8719 29.6504 31.4771 30.0635 31.3211Z" fill="#838D94"/>
  <path d="M18.8275 0.853711C18.5889 0.330469 18.0656 0 17.4965 0C16.9273 0 16.4041 0.330469 16.1654 0.853711L11.3277 11.3277L0.853711 16.1563C0.330469 16.3949 0 16.9182 0 17.4965C0 18.0748 0.330469 18.5889 0.853711 18.8275L11.3277 23.6652L16.1563 34.1301C16.3949 34.6533 16.9182 34.9838 17.4873 34.9838C18.0564 34.9838 18.5797 34.6533 18.8184 34.1301L23.6561 23.6561L34.1301 18.8184C34.6533 18.5797 34.9838 18.0564 34.9838 17.4873C34.9838 16.9182 34.6533 16.3949 34.1301 16.1563L23.6652 11.3277L18.8275 0.853711Z" fill="#838D94"/>
</svg>
